<svg xmlns="http://www.w3.org/2000/svg" viewBox="0 0 400 400" role="img" aria-labelledby="title desc">
  <title id="title">Save Image Organized icon</title>
  <desc id="desc">A stylized image stack, folder tabs, and save arrow for the Save Image Organized ComfyUI node.</desc>
  <defs>
    <linearGradient id="bg" x1="56" y1="32" x2="344" y2="368" gradientUnits="userSpaceOnUse">
      <stop offset="0" stop-color="#101827"/>
      <stop offset="0.58" stop-color="#172238"/>
      <stop offset="1" stop-color="#0b1020"/>
    </linearGradient>
    <linearGradient id="panel" x1="106" y1="112" x2="294" y2="304" gradientUnits="userSpaceOnUse">
      <stop offset="0" stop-color="#5eead4"/>
      <stop offset="0.48" stop-color="#60a5fa"/>
      <stop offset="1" stop-color="#818cf8"/>
    </linearGradient>
    <linearGradient id="accent" x1="148" y1="120" x2="282" y2="282" gradientUnits="userSpaceOnUse">
      <stop offset="0" stop-color="#f8fafc"/>
      <stop offset="1" stop-color="#dbeafe"/>
    </linearGradient>
    <filter id="shadow" x="-20%" y="-20%" width="140%" height="140%">
      <feDropShadow dx="0" dy="18" stdDeviation="18" flood-color="#020617" flood-opacity="0.42"/>
    </filter>
  </defs>

  <rect width="400" height="400" rx="78" fill="url(#bg)"/>
  <circle cx="92" cy="82" r="54" fill="#38bdf8" opacity="0.18"/>
  <circle cx="318" cy="318" r="72" fill="#818cf8" opacity="0.16"/>

  <g filter="url(#shadow)">
    <path
      d="M96 132c0-15.5 12.5-28 28-28h67.4c8.5 0 16.4 3.9 21.7 10.5l13.5 16.8H276c15.5 0 28 12.5 28 28v111.2c0 15.5-12.5 28-28 28H124c-15.5 0-28-12.5-28-28V132Z"
      fill="#0f172a"
      stroke="#334155"
      stroke-width="8"
    />
    <path
      d="M114 158c0-8.8 7.2-16 16-16h140c8.8 0 16 7.2 16 16v103c0 8.8-7.2 16-16 16H130c-8.8 0-16-7.2-16-16V158Z"
      fill="url(#panel)"
    />
    <path
      d="M132 174c0-7.7 6.3-14 14-14h108c7.7 0 14 6.3 14 14v70c0 7.7-6.3 14-14 14H146c-7.7 0-14-6.3-14-14v-70Z"
      fill="#0b1020"
      opacity="0.82"
    />
    <path
      d="M151 228l34-38 25 27 17-18 34 37v10H151v-18Z"
      fill="url(#accent)"
    />
    <circle cx="238" cy="184" r="13" fill="#fde68a"/>
  </g>

  <g fill="none" stroke="#f8fafc" stroke-linecap="round" stroke-linejoin="round" stroke-width="16">
    <path d="M200 134v80"/>
    <path d="m168 184 32 32 32-32"/>
    <path d="M154 254h92"/>
  </g>

  <g fill="#5eead4">
    <rect x="124" y="316" width="36" height="16" rx="8"/>
    <rect x="182" y="316" width="36" height="16" rx="8"/>
    <rect x="240" y="316" width="36" height="16" rx="8"/>
  </g>
</svg>
